<?xml version="1.0" standalone="no"?>
<!DOCTYPE svg PUBLIC "-//W3C//DTD SVG 20010904//EN"
 "http://www.w3.org/TR/2001/REC-SVG-20010904/DTD/svg10.dtd">
<svg version="1.0" xmlns="http://www.w3.org/2000/svg"
 width="400.000000pt" height="300.000000pt" viewBox="0 0 400.000000 300.000000"
 preserveAspectRatio="xMidYMid meet">
<metadata>
Created by potrace 1.16, written by Peter Selinger 2001-2019
</metadata>
<g transform="translate(0.000000,300.000000) scale(0.100000,-0.100000)"
fill="#000000" stroke="none">
<path d="M1374 2125 c-220 -40 -222 -40 -230 -71 -8 -33 3 -74 21 -74 23 0 28
-20 9 -41 -17 -19 -17 -24 -1 -115 10 -53 22 -105 28 -115 12 -24 40 -24 170
-2 54 9 101 14 104 11 3 -2 8 -26 11 -51 l7 -47 -196 0 -196 0 -3 48 -3 47
-65 5 c-46 3 -74 11 -92 26 -56 44 -192 58 -233 24 -14 -11 -5 -24 75 -105
107 -109 112 -129 52 -188 l-38 -37 -99 100 c-55 55 -105 100 -113 100 -18 0
-32 -44 -32 -105 0 -69 40 -148 98 -192 48 -36 132 -58 187 -47 32 6 40 3 71
-27 33 -32 34 -36 34 -109 0 -68 -2 -76 -22 -85 -19 -8 -24 -19 -26 -58 -3
-43 -1 -48 22 -57 l26 -10 0 -332 c0 -183 3 -343 6 -356 l6 -22 -236 0 c-199
0 -236 -2 -236 -14 0 -13 46 -15 293 -18 430 -5 2929 2 2939 8 31 19 -36 24
-334 24 l-330 0 6 23 c3 12 6 30 6 40 0 26 142 24 230 -4 l67 -22 59 20 59 20
3 66 3 66 -52 15 c-68 21 -84 20 -154 -4 -39 -13 -84 -20 -137 -20 l-78 0 0
255 0 255 26 10 c23 9 25 14 22 57 -2 39 -7 50 -25 58 -22 9 -23 14 -23 156
l0 147 48 -2 47 -1 0 -40 c0 -22 6 -50 13 -62 16 -29 67 -56 91 -48 32 10 201
191 201 215 0 12 -16 38 -35 57 -30 30 -40 35 -69 30 -42 -7 -57 7 -49 45 5
26 -6 41 -133 168 -140 142 -160 155 -199 127 -16 -12 -25 -10 -73 19 -87 53
-239 71 -263 33 -20 -32 -8 -48 55 -78 35 -17 80 -49 100 -71 36 -40 36 -41
19 -66 -13 -21 -15 -32 -6 -55 l11 -29 -165 0 -166 0 7 48 c6 50 -29 401 -42
413 -10 10 -125 28 -136 22 -4 -3 -45 -81 -91 -173 -89 -182 -107 -246 -80
-287 l16 -23 -218 2 -217 3 -12 65 c-6 36 -10 68 -8 71 2 3 51 14 109 24 62
10 115 25 128 35 21 17 21 20 8 96 -7 44 -18 88 -26 99 -18 28 -291 145 -335
144 -19 0 -116 -16 -216 -34z m372 -67 l144 -63 11 -53 c6 -29 9 -55 7 -57 -1
-1 -27 -7 -57 -11 -59 -10 -79 -31 -34 -36 26 -3 -483 -96 -552 -101 -29 -2
-29 -2 -45 86 -14 73 -14 89 -3 98 23 20 16 65 -14 87 -19 14 -25 24 -18 31 6
5 80 21 165 36 85 15 173 30 195 35 22 4 44 8 48 9 5 1 73 -27 153 -61z m608
-33 c-3 -20 -20 -49 -39 -68 -53 -53 -69 -137 -38 -205 9 -20 17 -48 17 -62 1
-15 10 -29 23 -35 65 -33 85 -82 57 -140 -15 -31 -15 -38 -3 -46 8 -5 20 -9
27 -9 6 0 12 -11 12 -25 0 -18 -7 -28 -26 -35 -39 -15 -42 -13 -37 30 l6 39
-47 -1 c-94 -2 -125 52 -91 159 6 18 2 25 -19 33 -25 9 -26 13 -20 47 9 54
154 353 171 353 10 0 12 -9 7 -35z m70 3 c3 -13 11 -90 19 -173 15 -155 13
-223 -7 -231 -11 -4 -96 68 -96 82 0 3 12 15 26 27 15 11 33 35 40 53 19 45
18 145 -1 170 -15 20 -19 52 -9 78 9 23 23 20 28 -6z m721 -318 l130 -130 -75
-76 c-93 -93 -102 -99 -125 -74 -16 18 -16 19 18 33 68 29 69 115 0 147 -29
13 -33 20 -33 57 0 23 -5 45 -12 49 -14 9 -124 8 -138 -1 -6 -3 -10 -26 -10
-51 0 -51 -7 -54 -40 -19 l-24 26 84 84 c47 47 87 85 90 85 3 0 64 -58 135
-130z m-2254 17 c27 -14 57 -42 77 -71 27 -41 32 -57 32 -106 0 -32 -5 -71
-11 -87 -18 -48 -79 -102 -133 -118 -53 -16 -96 -19 -96 -8 0 4 32 40 71 79
59 59 71 78 76 113 5 33 1 48 -21 81 -15 23 -24 45 -20 51 3 6 -2 9 -12 7 -14
-2 -18 2 -16 15 2 13 -2 17 -15 15 -12 -2 -17 2 -15 14 2 13 -3 17 -19 15 -12
-1 -24 4 -26 11 -8 22 79 14 128 -11z m-283 -184 c-10 -12 -9 -15 7 -13 34 4
38 1 24 -16 -12 -15 -11 -16 10 -9 21 6 23 5 18 -14 -4 -17 -2 -21 12 -16 11
3 29 -7 51 -30 l34 -35 -30 -30 -29 -30 -39 32 c-47 38 -75 98 -76 157 0 38 2
42 15 31 12 -10 13 -16 3 -27z m1549 22 c2 -6 -10 -16 -27 -22 -16 -6 -30 -18
-30 -27 0 -14 -50 -16 -500 -16 l-500 0 0 40 0 40 527 -2 c349 -2 527 -6 530
-13z m743 -25 l0 -40 -241 0 c-216 0 -241 2 -235 16 3 9 6 27 6 40 l0 24 235
0 235 0 0 -40z m488 -62 c10 -10 -1 -26 -50 -75 -34 -34 -59 -65 -57 -68 3 -3
34 22 69 55 35 32 66 57 69 54 7 -7 -171 -184 -180 -178 -5 3 1 14 12 25 26
26 16 39 -11 14 -19 -17 -50 -15 -50 5 0 10 169 180 180 180 3 0 11 -5 18 -12z
m-1837 -173 c15 -82 30 -167 33 -187 l6 -38 -88 0 -88 0 -157 158 c-119 120
-157 164 -157 184 0 13 3 28 7 32 4 3 99 5 212 4 l206 -3 26 -150z m539 148
c0 -4 -16 -21 -35 -39 -34 -31 -35 -33 -29 -91 6 -55 4 -64 -40 -151 l-46 -92
-60 0 c-33 0 -60 3 -60 8 0 4 -13 81 -30 172 -16 91 -30 173 -30 183 0 15 14
17 165 17 91 0 165 -3 165 -7z m610 -2 c0 -3 -58 -65 -130 -136 -100 -100
-130 -125 -130 -108 0 12 11 35 25 51 l25 30 -23 53 c-21 49 -24 70 -12 107 4
10 34 13 125 11 66 0 120 -4 120 -8z m-990 -5 c0 -2 7 -40 15 -83 8 -43 14
-94 14 -113 -1 -26 -5 -17 -16 38 -10 47 -20 72 -29 72 -18 0 -17 -10 1 -106
16 -84 17 -80 -37 -110 -26 -13 -28 -13 -32 8 -9 41 -56 288 -56 293 0 3 32 5
70 5 39 0 70 -2 70 -4z m1180 -47 c0 -50 -1 -52 -70 -120 -40 -39 -76 -67 -82
-63 -6 4 -8 3 -4 -4 3 -6 -5 -23 -20 -37 -32 -32 -46 -24 -16 8 23 25 29 47
12 47 -6 0 -20 -11 -32 -25 l-22 -25 -23 21 c-12 12 -20 26 -17 31 3 5 2 8 -3
7 -4 -1 -16 1 -26 6 -16 7 -5 22 79 106 l99 99 62 0 63 0 0 -51z m-592 -22
c-10 -44 -5 -250 7 -279 7 -17 -2 -18 -99 -18 -58 0 -106 1 -106 3 0 1 24 49
54 107 37 74 57 127 65 176 l12 72 38 -10 38 -10 -9 -41z m-1083 -147 c102
-103 143 -150 128 -148 -12 2 -85 65 -162 141 -77 75 -145 137 -152 137 -15 0
-49 -30 -49 -43 0 -6 50 -61 112 -124 96 -96 108 -113 87 -113 -18 0 -56 32
-144 120 -119 120 -120 120 -97 136 29 20 72 66 72 77 0 17 59 -36 205 -183z
m1685 -45 l0 -105 -107 0 -108 0 105 105 c58 58 106 105 107 105 2 0 3 -47 3
-105z m-300 -20 c36 -37 51 -58 44 -65 -7 -7 -21 1 -44 25 -19 19 -41 35 -49
35 -9 0 0 -15 24 -40 l39 -40 -81 0 c-78 0 -81 1 -85 24 -6 32 51 93 70 74 16
-16 28 -2 14 15 -11 13 -7 27 8 27 3 0 30 -25 60 -55z m-1400 -274 c5 -11 10
-64 10 -117 0 -122 -8 -134 -90 -134 -89 0 -95 9 -95 133 0 131 4 137 96 137
57 0 70 -3 79 -19z m-6 -307 c19 -18 21 -55 4 -72 -7 -7 -40 -12 -78 -12 -38
0 -71 5 -78 12 -18 18 -15 65 6 77 28 17 128 13 146 -5z m1306 -204 l0 -130
-135 0 -135 0 0 130 0 130 135 0 135 0 0 -130z m118 105 c47 -15 52 -19 52
-46 0 -18 4 -28 10 -24 6 3 10 15 10 26 0 10 5 19 10 19 7 0 10 -29 8 -77 l-3
-78 -65 -22 c-106 -35 -100 -42 -100 102 0 95 3 123 13 120 6 -2 36 -11 65
-20z"/>
</g>
</svg>
